<?xml version="1.0" encoding="UTF-8"?>
<!DOCTYPE svg PUBLIC "-//W3C//DTD SVG 1.1//EN" "http://www.w3.org/Graphics/SVG/1.1/DTD/svg11.dtd">
<svg xmlns="http://www.w3.org/2000/svg" version="1.1" width="500px" height="500px" style="shape-rendering:geometricPrecision; text-rendering:geometricPrecision; image-rendering:optimizeQuality; fill-rule:evenodd; clip-rule:evenodd" xmlns:xlink="http://www.w3.org/1999/xlink">
<g><path style="opacity:0.556" fill="#777582" d="M 134.5,200.5 C 125.779,200.225 117.113,200.558 108.5,201.5C 108.611,200.883 108.944,200.383 109.5,200C 118.01,199.177 126.344,199.343 134.5,200.5 Z"/></g>
<g><path style="opacity:1" fill="#1b1b2e" d="M 181.5,202.5 C 181.833,203.5 182.5,204.167 183.5,204.5C 184.79,205.058 185.623,206.058 186,207.5C 186.808,211.027 186.641,214.36 185.5,217.5C 184.095,219.225 183.595,221.225 184,223.5C 185.039,222.756 185.539,221.756 185.5,220.5C 185.833,220.5 186.167,220.5 186.5,220.5C 189.243,218.761 191.243,216.427 192.5,213.5C 196.167,209.167 200.167,205.167 204.5,201.5C 207.204,200.286 209.871,200.286 212.5,201.5C 213.622,203.288 213.789,205.288 213,207.5C 205.616,214.382 198.783,221.715 192.5,229.5C 195.235,236.873 198.069,244.206 201,251.5C 203.579,253.815 206.412,254.148 209.5,252.5C 213.486,253.11 217.486,253.61 221.5,254C 223.444,258.035 222.444,261.035 218.5,263C 210.395,263.934 202.395,263.601 194.5,262C 192.959,260.421 191.792,258.587 191,256.5C 187.667,247.833 184.333,239.167 181,230.5C 178.275,237.616 175.275,244.616 172,251.5C 170.005,253.747 167.505,254.747 164.5,254.5C 164.5,253.833 164.167,253.5 163.5,253.5C 163.5,253.167 163.5,252.833 163.5,252.5C 162.766,251.292 162.433,249.959 162.5,248.5C 164.324,243.202 165.824,237.868 167,232.5C 163.459,235.109 159.959,235.109 156.5,232.5C 155.118,230.451 153.452,228.785 151.5,227.5C 148.197,217.238 150.863,208.738 159.5,202C 165.552,198.451 171.886,197.785 178.5,200C 179.942,200.377 180.942,201.21 181.5,202.5 Z M 169.5,230.5 C 168.833,229.5 168.167,228.5 167.5,227.5C 166.965,225.554 165.632,224.554 163.5,224.5C 162.833,223.167 161.833,222.167 160.5,221.5C 160.546,213.283 164.546,209.45 172.5,210C 173.743,211.154 174.743,212.488 175.5,214C 173.072,219.354 171.072,224.854 169.5,230.5 Z"/></g>
<g><path style="opacity:1" fill="#18192c" d="M 134.5,200.5 C 136.153,200.66 137.486,201.326 138.5,202.5C 138.427,204.027 139.094,205.027 140.5,205.5C 141.117,205.611 141.617,205.944 142,206.5C 145.112,218.111 141.278,226.611 130.5,232C 133.445,239.388 136.779,246.555 140.5,253.5C 147.982,254.492 155.648,254.825 163.5,254.5C 163.833,254.5 164.167,254.5 164.5,254.5C 165.793,258.122 164.793,260.955 161.5,263C 152.755,263.802 144.088,263.636 135.5,262.5C 135.027,261.094 134.027,260.427 132.5,260.5C 130.827,259.657 129.66,258.324 129,256.5C 125.332,248.326 122.165,239.993 119.5,231.5C 118.377,230.243 117.711,230.576 117.5,232.5C 114.078,244.845 108.411,256.011 100.5,266C 93.3651,270.68 85.6984,271.68 77.5,269C 76.0577,268.623 75.0577,267.79 74.5,266.5C 74.0269,265.094 73.0269,264.427 71.5,264.5C 66.104,255.177 66.2707,245.844 72,236.5C 72.7083,235.619 73.5416,234.953 74.5,234.5C 76.1667,233.5 77.5,232.167 78.5,230.5C 80.4844,227.836 83.1511,226.169 86.5,225.5C 89.1522,225.59 91.4855,224.924 93.5,223.5C 96.408,222.431 99.408,222.264 102.5,223C 103.942,223.377 104.942,224.21 105.5,225.5C 105.5,227.167 105.5,228.833 105.5,230.5C 105.047,231.458 104.381,232.292 103.5,233C 94.8022,232.892 87.6355,236.059 82,242.5C 79.1859,247.006 78.8526,251.673 81,256.5C 84.0412,259.542 87.5412,260.208 91.5,258.5C 93.0269,258.573 94.0269,257.906 94.5,256.5C 96.2624,255.738 97.2624,254.404 97.5,252.5C 100.306,245.413 103.306,238.413 106.5,231.5C 107.338,231.158 107.672,230.492 107.5,229.5C 109.443,223.338 111.776,217.338 114.5,211.5C 115.404,210.791 115.737,209.791 115.5,208.5C 113.143,208.663 110.81,208.497 108.5,208C 107.594,206.301 107.261,204.467 107.5,202.5C 107.5,201.833 107.833,201.5 108.5,201.5C 117.113,200.558 125.779,200.225 134.5,200.5 Z M 132.5,215.5 C 131.623,217.728 130.29,219.728 128.5,221.5C 127.508,221.328 126.842,221.662 126.5,222.5C 124.517,222.843 123.183,222.176 122.5,220.5C 124.238,216.784 126.072,213.118 128,209.5C 130.711,210.588 132.211,212.588 132.5,215.5 Z M 105.5,230.5 C 106.167,230.5 106.5,230.833 106.5,231.5C 103.306,238.413 100.306,245.413 97.5,252.5C 95.7376,253.262 94.7376,254.596 94.5,256.5C 92.9731,256.427 91.9731,257.094 91.5,258.5C 87.5412,260.208 84.0412,259.542 81,256.5C 78.8526,251.673 79.1859,247.006 82,242.5C 87.6355,236.059 94.8022,232.892 103.5,233C 104.381,232.292 105.047,231.458 105.5,230.5 Z"/></g>
<g><path style="opacity:0.929" fill="#656372" d="M 212.5,201.5 C 209.871,200.286 207.204,200.286 204.5,201.5C 205.492,199.974 206.992,199.307 209,199.5C 210.681,199.608 211.848,200.275 212.5,201.5 Z"/></g>
<g><path style="opacity:0.004" fill="#a2a1a8" d="M 181.5,202.5 C 182.833,202.5 183.5,203.167 183.5,204.5C 182.5,204.167 181.833,203.5 181.5,202.5 Z"/></g>
<g><path style="opacity:0.765" fill="#7b7a86" d="M 138.5,202.5 C 139.906,202.973 140.573,203.973 140.5,205.5C 139.094,205.027 138.427,204.027 138.5,202.5 Z"/></g>
<g><path style="opacity:0.673" fill="#686675" d="M 107.5,202.5 C 107.261,204.467 107.594,206.301 108.5,208C 110.81,208.497 113.143,208.663 115.5,208.5C 115.737,209.791 115.404,210.791 114.5,211.5C 112.44,209.846 109.94,208.846 107,208.5C 106.211,206.288 106.378,204.288 107.5,202.5 Z"/></g>
<g><path style="opacity:0.722" fill="#7a7985" d="M 192.5,213.5 C 191.243,216.427 189.243,218.761 186.5,220.5C 187.757,217.573 189.757,215.239 192.5,213.5 Z"/></g>
<g><path style="opacity:0.859" fill="#575566" d="M 132.5,215.5 C 133.109,218.878 131.776,220.878 128.5,221.5C 130.29,219.728 131.623,217.728 132.5,215.5 Z"/></g>
<g><path style="opacity:0.239" fill="#92919a" d="M 185.5,217.5 C 185.5,218.5 185.5,219.5 185.5,220.5C 185.539,221.756 185.039,222.756 184,223.5C 183.595,221.225 184.095,219.225 185.5,217.5 Z"/></g>
<g><path style="opacity:0.055" fill="#b2b1b6" d="M 122.5,220.5 C 123.183,222.176 124.517,222.843 126.5,222.5C 125.081,223.451 123.415,223.784 121.5,223.5C 121.263,222.209 121.596,221.209 122.5,220.5 Z"/></g>
<g><path style="opacity:0.682" fill="#8d8c96" d="M 160.5,221.5 C 161.833,222.167 162.833,223.167 163.5,224.5C 161.5,224.5 160.5,223.5 160.5,221.5 Z"/></g>
<g><path style="opacity:0.992" fill="#5a5868" d="M 93.5,223.5 C 91.4855,224.924 89.1522,225.59 86.5,225.5C 88.5145,224.076 90.8478,223.41 93.5,223.5 Z"/></g>
<g><path style="opacity:0.98" fill="#73727f" d="M 151.5,227.5 C 153.452,228.785 155.118,230.451 156.5,232.5C 153.856,231.856 152.189,230.189 151.5,227.5 Z"/></g>
<g><path style="opacity:0.235" fill="#afafb4" d="M 105.5,225.5 C 106.167,226.833 106.833,228.167 107.5,229.5C 107.672,230.492 107.338,231.158 106.5,231.5C 106.5,230.833 106.167,230.5 105.5,230.5C 105.5,228.833 105.5,227.167 105.5,225.5 Z"/></g>
<g><path style="opacity:0.278" fill="#a7a6ac" d="M 119.5,231.5 C 118.833,231.833 118.167,232.167 117.5,232.5C 117.711,230.576 118.377,230.243 119.5,231.5 Z"/></g>
<g><path style="opacity:0.137" fill="#adadb2" d="M 167.5,227.5 C 168.167,228.5 168.833,229.5 169.5,230.5C 169.672,231.492 169.338,232.158 168.5,232.5C 168.5,231.833 168.167,231.5 167.5,231.5C 167.5,230.167 167.5,228.833 167.5,227.5 Z"/></g>
<g><path style="opacity:0.576" fill="#8c8b95" d="M 78.5,230.5 C 77.5,232.167 76.1667,233.5 74.5,234.5C 74.8333,232.167 76.1667,230.833 78.5,230.5 Z"/></g>
<g><path style="opacity:1" fill="#5cbaf9" d="M 403.5,282.5 C 403.5,284.5 403.5,286.5 403.5,288.5C 401.089,290.86 398.089,291.86 394.5,291.5C 390.34,291.898 387.007,290.565 384.5,287.5C 384.517,285.435 384.85,283.435 385.5,281.5C 390.476,267.073 396.143,252.907 402.5,239C 409.551,235.77 412.385,237.937 411,245.5C 406.162,257.35 401.329,269.184 396.5,281C 398.92,281.29 401.254,281.79 403.5,282.5 Z"/></g>
<g><path style="opacity:0.004" fill="#cececf" d="M 162.5,248.5 C 162.433,249.959 162.766,251.292 163.5,252.5C 162.414,252.38 161.747,251.713 161.5,250.5C 161.543,249.584 161.876,248.917 162.5,248.5 Z"/></g>
<g><path style="opacity:0.831" fill="#aacde5" d="M 251.5,258.5 C 251.549,250.828 248.549,249.495 242.5,254.5C 246.085,247.871 249.752,247.871 253.5,254.5C 253.006,256.026 252.339,257.359 251.5,258.5 Z"/></g>
<g><path style="opacity:1" fill="#55b9fb" d="M 251.5,258.5 C 252.625,260 253.959,261.333 255.5,262.5C 255.675,264.621 255.341,266.621 254.5,268.5C 254.5,268.833 254.5,269.167 254.5,269.5C 251.746,269.784 249.08,270.451 246.5,271.5C 245.688,273.945 244.688,276.278 243.5,278.5C 242.609,279.261 241.942,280.261 241.5,281.5C 244.086,282.48 246.753,282.813 249.5,282.5C 252.472,286.394 251.472,289.227 246.5,291C 242.833,291.667 239.167,291.667 235.5,291C 230.782,289.551 229.282,286.385 231,281.5C 232.371,277.927 233.871,274.427 235.5,271C 230.639,268.218 230.306,265.051 234.5,261.5C 236.5,261.5 238.5,261.5 240.5,261.5C 240.5,260.5 240.5,259.5 240.5,258.5C 240.66,256.847 241.326,255.514 242.5,254.5C 248.549,249.495 251.549,250.828 251.5,258.5 Z"/></g>
<g><path style="opacity:0.745" fill="#555364" d="M 163.5,253.5 C 163.5,253.833 163.5,254.167 163.5,254.5C 155.648,254.825 147.982,254.492 140.5,253.5C 148.071,253.196 155.738,253.196 163.5,253.5 Z"/></g>
<g><path style="opacity:0.584" fill="#83828d" d="M 97.5,252.5 C 97.2624,254.404 96.2624,255.738 94.5,256.5C 94.7376,254.596 95.7376,253.262 97.5,252.5 Z"/></g>
<g><path style="opacity:1" fill="#56b9fb" d="M 267.5,257.5 C 267.33,258.822 267.663,259.989 268.5,261C 273.489,261.499 278.489,261.666 283.5,261.5C 285.441,263.011 285.941,265.011 285,267.5C 282.958,269.604 280.458,270.771 277.5,271C 276.267,272.667 274.933,274.167 273.5,275.5C 270.963,277.632 270.963,279.799 273.5,282C 276.817,282.498 280.15,282.665 283.5,282.5C 284.167,282.5 284.833,282.5 285.5,282.5C 285.945,285.365 285.278,287.865 283.5,290C 278.924,291.476 274.257,291.81 269.5,291C 262.87,288.56 260.536,284.06 262.5,277.5C 263.674,276.486 264.34,275.153 264.5,273.5C 264.5,273.167 264.5,272.833 264.5,272.5C 264.167,272.5 263.833,272.5 263.5,272.5C 262.599,273.29 261.932,274.29 261.5,275.5C 259.989,277.441 257.989,277.941 255.5,277C 253.163,274.806 252.83,272.306 254.5,269.5C 255.167,269.5 255.5,269.167 255.5,268.5C 257.897,265.691 259.23,262.358 259.5,258.5C 262.007,254.183 264.674,253.85 267.5,257.5 Z M 264.5,272.5 C 264.517,270.972 265.184,270.472 266.5,271C 265.956,271.717 265.289,272.217 264.5,272.5 Z"/></g>
<g><path style="opacity:1" fill="#5bbafa" d="M 406.5,289.5 C 406.5,287.833 406.5,286.167 406.5,284.5C 406.5,283.833 406.833,283.5 407.5,283.5C 411.642,282.96 415.642,282.294 419.5,281.5C 421.248,279.84 421.748,277.84 421,275.5C 420.329,274.748 419.496,274.414 418.5,274.5C 416.521,276.168 414.188,276.834 411.5,276.5C 409.559,274.989 409.059,272.989 410,270.5C 412.218,265.22 415.051,260.387 418.5,256C 421.025,255.104 423.192,255.604 425,257.5C 425.333,260.167 425.667,262.833 426,265.5C 428.503,268.502 430.503,271.835 432,275.5C 432.872,283.628 429.372,288.795 421.5,291C 417.167,291.667 412.833,291.667 408.5,291C 407.584,290.722 406.918,290.222 406.5,289.5 Z"/></g>
<g><path style="opacity:0.569" fill="#8d8b95" d="M 94.5,256.5 C 94.0269,257.906 93.0269,258.573 91.5,258.5C 91.9731,257.094 92.9731,256.427 94.5,256.5 Z"/></g>
<g><path style="opacity:0.406" fill="#afcfe3" d="M 240.5,258.5 C 240.5,259.5 240.5,260.5 240.5,261.5C 238.5,261.5 236.5,261.5 234.5,261.5C 236.639,260.842 238.639,259.842 240.5,258.5 Z"/></g>
<g><path style="opacity:0.462" fill="#a5cde5" d="M 267.5,257.5 C 268.267,258.172 268.934,259.005 269.5,260C 274.351,260.174 279.018,260.674 283.5,261.5C 278.489,261.666 273.489,261.499 268.5,261C 267.663,259.989 267.33,258.822 267.5,257.5 Z"/></g>
<g><path style="opacity:0.318" fill="#908e98" d="M 132.5,260.5 C 134.027,260.427 135.027,261.094 135.5,262.5C 133.973,262.573 132.973,261.906 132.5,260.5 Z"/></g>
<g><path style="opacity:1" fill="#5bbafa" d="M 324.5,283.5 C 323.122,289.201 319.455,291.867 313.5,291.5C 310.953,291.558 308.62,290.891 306.5,289.5C 301.574,291.908 296.574,292.074 291.5,290C 289.536,288.549 288.203,286.716 287.5,284.5C 287.5,281.167 287.5,277.833 287.5,274.5C 289.954,264.542 296.287,259.709 306.5,260C 308.329,260.273 309.829,261.107 311,262.5C 313.153,260.556 315.653,260.056 318.5,261C 319.894,261.956 320.561,263.289 320.5,265C 318.892,270.492 316.892,275.825 314.5,281C 318.088,281.147 321.421,281.98 324.5,283.5 Z M 303.5,280.5 C 298.074,282.402 296.074,280.402 297.5,274.5C 299.285,270.727 302.285,269.061 306.5,269.5C 306.108,273.342 305.108,277.009 303.5,280.5 Z"/></g>
<g><path style="opacity:1" fill="#54b9fb" d="M 326.5,288.5 C 326.302,280.466 326.635,272.466 327.5,264.5C 328.957,260.951 331.623,259.784 335.5,261C 336.252,261.671 336.586,262.504 336.5,263.5C 335.996,267.507 335.83,271.507 336,275.5C 336.717,274.956 337.217,274.289 337.5,273.5C 338.449,271.223 339.782,269.223 341.5,267.5C 343.587,266.415 344.92,264.749 345.5,262.5C 349.838,258.11 352.838,258.943 354.5,265C 354.375,266.627 353.875,268.127 353,269.5C 347.5,276.333 342,283.167 336.5,290C 332.566,292.399 329.232,291.899 326.5,288.5 Z"/></g>
<g><path style="opacity:1" fill="#57b9fa" d="M 378.5,277.5 C 373.181,278.072 367.847,278.738 362.5,279.5C 362.855,280.522 363.522,281.189 364.5,281.5C 370.176,281.334 375.843,281.501 381.5,282C 382.056,282.383 382.389,282.883 382.5,283.5C 382.5,285.167 382.5,286.833 382.5,288.5C 381.653,289.966 380.32,290.8 378.5,291C 371.766,291.829 365.099,291.496 358.5,290C 352.43,284.704 350.93,278.204 354,270.5C 358.915,261.124 366.415,257.957 376.5,261C 381.218,264.343 382.718,268.843 381,274.5C 380.623,275.942 379.79,276.942 378.5,277.5 Z M 367.5,269.5 C 368.978,269.238 370.311,269.571 371.5,270.5C 371.376,271.107 371.043,271.44 370.5,271.5C 369.127,271.657 367.793,271.49 366.5,271C 367.056,270.617 367.389,270.117 367.5,269.5 Z"/></g>
<g><path style="opacity:0.718" fill="#83818c" d="M 71.5,264.5 C 73.0269,264.427 74.0269,265.094 74.5,266.5C 72.9731,266.573 71.9731,265.906 71.5,264.5 Z"/></g>
<g><path style="opacity:0.18" fill="#b6d0e2" d="M 259.5,258.5 C 259.23,262.358 257.897,265.691 255.5,268.5C 255.167,268.5 254.833,268.5 254.5,268.5C 255.341,266.621 255.675,264.621 255.5,262.5C 257.507,263.679 257.84,263.179 256.5,261C 257.691,260.302 258.691,259.469 259.5,258.5 Z"/></g>
<g><path style="opacity:0.017" fill="#c6d4de" d="M 327.5,264.5 C 326.635,272.466 326.302,280.466 326.5,288.5C 325.833,286.833 325.167,285.167 324.5,283.5C 325.242,277.882 325.742,272.215 326,266.5C 326.278,265.584 326.778,264.918 327.5,264.5 Z"/></g>
<g><path style="opacity:0.165" fill="#b9d1e1" d="M 345.5,262.5 C 344.92,264.749 343.587,266.415 341.5,267.5C 342.08,265.251 343.413,263.585 345.5,262.5 Z"/></g>
<g><path style="opacity:0.241" fill="#aecfe3" d="M 367.5,269.5 C 367.389,270.117 367.056,270.617 366.5,271C 367.793,271.49 369.127,271.657 370.5,271.5C 368.636,272.793 366.636,272.793 364.5,271.5C 365.005,270.081 366.005,269.415 367.5,269.5 Z"/></g>
<g><path style="opacity:0.157" fill="#c5d4dd" d="M 336.5,263.5 C 337.196,266.859 337.529,270.193 337.5,273.5C 337.217,274.289 336.717,274.956 336,275.5C 335.83,271.507 335.996,267.507 336.5,263.5 Z"/></g>
<g><path style="opacity:0.037" fill="#c1d3de" d="M 263.5,272.5 C 263.5,273.167 263.833,273.5 264.5,273.5C 264.34,275.153 263.674,276.486 262.5,277.5C 262.672,276.508 262.338,275.842 261.5,275.5C 261.932,274.29 262.599,273.29 263.5,272.5 Z"/></g>
<g><path style="opacity:0.004" fill="#b8d1e1" d="M 418.5,274.5 C 418.586,275.496 418.252,276.329 417.5,277C 415.288,277.789 413.288,277.622 411.5,276.5C 414.188,276.834 416.521,276.168 418.5,274.5 Z"/></g>
<g><path style="opacity:0.373" fill="#b5d0e1" d="M 287.5,274.5 C 287.5,277.833 287.5,281.167 287.5,284.5C 286.833,283.833 286.167,283.167 285.5,282.5C 286.078,279.72 286.745,277.053 287.5,274.5 Z"/></g>
<g><path style="opacity:0.837" fill="#a5cbe7" d="M 378.5,277.5 C 377.653,278.966 376.32,279.8 374.5,280C 371.438,280.741 368.438,280.575 365.5,279.5C 364.702,279.957 364.369,280.624 364.5,281.5C 363.522,281.189 362.855,280.522 362.5,279.5C 367.847,278.738 373.181,278.072 378.5,277.5 Z"/></g>
<g><path style="opacity:0.006" fill="#d8d9d8" d="M 384.5,281.5 C 383.761,281.631 383.094,281.464 382.5,281C 383.437,280.308 384.103,280.475 384.5,281.5 Z"/></g>
<g><path style="opacity:0.476" fill="#a9cee4" d="M 243.5,278.5 C 243.5,279.5 243.5,280.5 243.5,281.5C 245.735,281.205 247.735,281.539 249.5,282.5C 246.753,282.813 244.086,282.48 241.5,281.5C 241.942,280.261 242.609,279.261 243.5,278.5 Z"/></g>
<g><path style="opacity:0.494" fill="#9ccbe7" d="M 273.5,275.5 C 272.265,277.773 272.598,279.606 274.5,281C 277.695,281.181 280.695,281.681 283.5,282.5C 280.15,282.665 276.817,282.498 273.5,282C 270.963,279.799 270.963,277.632 273.5,275.5 Z"/></g>
<g><path style="opacity:0.318" fill="#bcd2e0" d="M 297.5,274.5 C 296.074,280.402 298.074,282.402 303.5,280.5C 301.989,282.441 299.989,282.941 297.5,282C 296.186,279.395 296.186,276.895 297.5,274.5 Z"/></g>
<g><path style="opacity:0.522" fill="#94c9e9" d="M 419.5,281.5 C 415.642,282.294 411.642,282.96 407.5,283.5C 407.611,282.883 407.944,282.383 408.5,282C 412.152,281.501 415.818,281.335 419.5,281.5 Z"/></g>
<g><path style="opacity:0.038" fill="#cad5dc" d="M 384.5,281.5 C 384.833,281.5 385.167,281.5 385.5,281.5C 384.85,283.435 384.517,285.435 384.5,287.5C 383.833,287.833 383.167,288.167 382.5,288.5C 382.5,286.833 382.5,285.167 382.5,283.5C 383.5,283.167 384.167,282.5 384.5,281.5 Z"/></g>
<g><path style="opacity:0.467" fill="#b4d0e2" d="M 403.5,282.5 C 404.5,283.167 405.5,283.833 406.5,284.5C 406.5,286.167 406.5,287.833 406.5,289.5C 405.778,289.082 405.278,288.416 405,287.5C 404.617,288.056 404.117,288.389 403.5,288.5C 403.5,286.5 403.5,284.5 403.5,282.5 Z"/></g>
</svg>
